HIERARCHY
ROOT Hips
{
	OFFSET 0.000000 103.266502 0.000000
	CHANNELS 6 Xposition Yposition Zposition Xrotation Yrotation Zrotation 
	JOINT Spine
	{
		OFFSET -0.002400 12.777504 0.315300
		CHANNELS 3 Xrotation Yrotation Zrotation
		JOINT Spine1
		{
			OFFSET -0.002067 5.816869 0.032633
			CHANNELS 3 Xrotation Yrotation Zrotation
			JOINT Spine1_split
			{
				OFFSET -0.002067 5.816869 0.032633
				CHANNELS 3 Xrotation Yrotation Zrotation
				JOINT Spine2
				{
					OFFSET -0.002067 5.816869 0.032633
					CHANNELS 3 Xrotation Yrotation Zrotation
					JOINT Neck
					{
						OFFSET -0.003700 21.199493 -0.826900
						CHANNELS 3 Xrotation Yrotation Zrotation
						JOINT Head
						{
							OFFSET 0.000000 20.442200 4.834800
							CHANNELS 3 Xrotation Yrotation Zrotation
							JOINT HeadTop_End
							{
								OFFSET 0.000000 34.668396 4.968400
								CHANNELS 3 Xrotation Yrotation Zrotation
								End Site
								{
									OFFSET 0.000000 0.000000 0.000000
								}
							}
						}
					}
					JOINT LeftShoulder
					{
						OFFSET 3.288150 8.794197 -1.372250
						CHANNELS 3 Xrotation Yrotation Zrotation
						JOINT LeftShoulder_split
						{
							OFFSET 3.288150 8.794197 -1.372250
							CHANNELS 3 Xrotation Yrotation Zrotation
							JOINT LeftArm
							{
								OFFSET 11.953299 -2.279007 -0.146200
								CHANNELS 3 Xrotation Yrotation Zrotation
								JOINT LeftForeArm
								{
									OFFSET 18.448900 0.000000 0.000000
									CHANNELS 3 Xrotation Yrotation Zrotation
									JOINT LeftHand
									{
										OFFSET 29.527798 0.000000 0.000000
										CHANNELS 3 Xrotation Yrotation Zrotation
										JOINT LeftHandThumb1
										{
											OFFSET 10.739754 -2.369614 9.225399
											CHANNELS 3 Xrotation Yrotation Zrotation
											JOINT LeftHandThumb2
											{
												OFFSET 4.926170 -2.844131 2.844125
												CHANNELS 3 Xrotation Yrotation Zrotation
												JOINT LeftHandThumb3
												{
													OFFSET 4.614891 -2.664413 2.664409
													CHANNELS 3 Xrotation Yrotation Zrotation
													JOINT LeftHandThumb4
													{
														OFFSET 4.432465 -2.559082 2.559083
														CHANNELS 3 Xrotation Yrotation Zrotation
														End Site
														{
															OFFSET 0.000000 0.000000 0.000000
														}
													}
												}
											}
										}
										JOINT LeftHandIndex1
										{
											OFFSET 26.467674 0.187653 6.405298
											CHANNELS 3 Xrotation Yrotation Zrotation
											JOINT LeftHandIndex2
											{
												OFFSET 8.792900 0.000000 0.000000
												CHANNELS 3 Xrotation Yrotation Zrotation
												JOINT LeftHandIndex3
												{
													OFFSET 10.075203 0.000000 0.000000
													CHANNELS 3 Xrotation Yrotation Zrotation
													End Site
													{
														OFFSET 0.000000 0.000000 0.000000
													}
												}
											}
										}
										JOINT LeftHandMiddle1
										{
											OFFSET 25.764404 0.000000 0.000000
											CHANNELS 3 Xrotation Yrotation Zrotation
											JOINT LeftHandMiddle2
											{
												OFFSET 9.393974 0.000000 0.000000
												CHANNELS 3 Xrotation Yrotation Zrotation
												JOINT LeftHandMiddle3
												{
													OFFSET 10.771950 0.000000 0.000000
													CHANNELS 3 Xrotation Yrotation Zrotation
													End Site
													{
														OFFSET 0.000000 0.000000 0.000000
													}
												}
											}
										}
										JOINT LeftHandRing1
										{
											OFFSET 24.660927 0.144547 -6.225808
											CHANNELS 3 Xrotation Yrotation Zrotation
											JOINT LeftHandRing2
											{
												OFFSET 9.393799 0.000000 0.000000
												CHANNELS 3 Xrotation Yrotation Zrotation
												JOINT LeftHandRing3
												{
													OFFSET 9.928497 0.000000 0.000000
													CHANNELS 3 Xrotation Yrotation Zrotation
													End Site
													{
														OFFSET 0.000000 0.000000 0.000000
													}
												}
											}
										}
										JOINT LeftHandPinky1
										{
											OFFSET 23.655350 0.125290 -12.815412
											CHANNELS 3 Xrotation Yrotation Zrotation
											JOINT LeftHandPinky2
											{
												OFFSET 8.425102 0.000000 0.000000
												CHANNELS 3 Xrotation Yrotation Zrotation
												JOINT LeftHandPinky3
												{
													OFFSET 8.147003 0.000000 0.000000
													CHANNELS 3 Xrotation Yrotation Zrotation
													End Site
													{
														OFFSET 0.000000 0.000000 0.000000
													}
												}
											}
										}
									}
								}
							}
						}
					}
					JOINT RightShoulder
					{
						OFFSET -3.249400 8.794197 -1.372250
						CHANNELS 3 Xrotation Yrotation Zrotation
						JOINT RightShoulder_split
						{
							OFFSET -3.249400 8.794197 -1.372250
							CHANNELS 3 Xrotation Yrotation Zrotation
							JOINT RightArm
							{
								OFFSET -11.953299 -2.279007 -0.146200
								CHANNELS 3 Xrotation Yrotation Zrotation
								JOINT RightForeArm
								{
									OFFSET -18.448900 0.000000 0.000000
									CHANNELS 3 Xrotation Yrotation Zrotation
									JOINT RightHand
									{
										OFFSET -29.527802 0.000000 0.000000
										CHANNELS 3 Xrotation Yrotation Zrotation
										JOINT RightHandThumb1
										{
											OFFSET -10.739754 -2.369614 9.225399
											CHANNELS 3 Xrotation Yrotation Zrotation
											JOINT RightHandThumb2
											{
												OFFSET -4.926170 -2.844131 2.844125
												CHANNELS 3 Xrotation Yrotation Zrotation
												JOINT RightHandThumb3
												{
													OFFSET -4.614891 -2.664413 2.664409
													CHANNELS 3 Xrotation Yrotation Zrotation
													JOINT RightHandThumb4
													{
														OFFSET -4.432465 -2.559082 2.559083
														CHANNELS 3 Xrotation Yrotation Zrotation
														End Site
														{
															OFFSET 0.000000 0.000000 0.000000
														}
													}
												}
											}
										}
										JOINT RightHandIndex1
										{
											OFFSET -26.467674 0.187653 6.405298
											CHANNELS 3 Xrotation Yrotation Zrotation
											JOINT RightHandIndex2
											{
												OFFSET -8.792900 0.000000 0.000000
												CHANNELS 3 Xrotation Yrotation Zrotation
												JOINT RightHandIndex3
												{
													OFFSET -10.075203 0.000000 0.000000
													CHANNELS 3 Xrotation Yrotation Zrotation
													End Site
													{
														OFFSET 0.000000 0.000000 0.000000
													}
												}
											}
										}
										JOINT RightHandMiddle1
										{
											OFFSET -25.764404 0.000000 0.000000
											CHANNELS 3 Xrotation Yrotation Zrotation
											JOINT RightHandMiddle2
											{
												OFFSET -9.393974 0.000000 0.000000
												CHANNELS 3 Xrotation Yrotation Zrotation
												JOINT RightHandMiddle3
												{
													OFFSET -10.771950 0.000000 0.000000
													CHANNELS 3 Xrotation Yrotation Zrotation
													End Site
													{
														OFFSET 0.000000 0.000000 0.000000
													}
												}
											}
										}
										JOINT RightHandRing1
										{
											OFFSET -24.660927 0.144547 -6.225808
											CHANNELS 3 Xrotation Yrotation Zrotation
											JOINT RightHandRing2
											{
												OFFSET -9.393799 0.000000 0.000000
												CHANNELS 3 Xrotation Yrotation Zrotation
												JOINT RightHandRing3
												{
													OFFSET -9.928497 0.000000 0.000000
													CHANNELS 3 Xrotation Yrotation Zrotation
													End Site
													{
														OFFSET 0.000000 0.000000 0.000000
													}
												}
											}
										}
										JOINT RightHandPinky1
										{
											OFFSET -23.655350 0.125290 -12.815412
											CHANNELS 3 Xrotation Yrotation Zrotation
											JOINT RightHandPinky2
											{
												OFFSET -8.425102 0.000000 0.000000
												CHANNELS 3 Xrotation Yrotation Zrotation
												JOINT RightHandPinky3
												{
													OFFSET -8.147003 0.000000 0.000000
													CHANNELS 3 Xrotation Yrotation Zrotation
													End Site
													{
														OFFSET 0.000000 0.000000 0.000000
													}
												}
											}
										}
									}
								}
							}
						}
					}
				}
			}
		}
	}
	JOINT LeftUpLeg
	{
		OFFSET 11.394100 -6.187798 -0.413800
		CHANNELS 3 Xrotation Yrotation Zrotation
		JOINT LeftLeg
		{
			OFFSET 0.430247 -32.302673 3.732800
			CHANNELS 3 Xrotation Yrotation Zrotation
			JOINT LeftFoot
			{
				OFFSET -0.430247 -48.264931 -6.423300
				CHANNELS 3 Xrotation Yrotation Zrotation
				JOINT LeftToeBase
				{
					OFFSET 4.230900 -16.068199 23.438400
					CHANNELS 3 Xrotation Yrotation Zrotation
					JOINT LeftToe_End
					{
						OFFSET 4.510700 0.695400 19.974600
						CHANNELS 3 Xrotation Yrotation Zrotation
						End Site
						{
							OFFSET 0.000000 0.000000 0.000000
						}
					}
				}
			}
		}
	}
	JOINT RightUpLeg
	{
		OFFSET -11.333700 -6.187798 -0.413800
		CHANNELS 3 Xrotation Yrotation Zrotation
		JOINT RightLeg
		{
			OFFSET -0.430392 -32.302628 3.733000
			CHANNELS 3 Xrotation Yrotation Zrotation
			JOINT RightFoot
			{
				OFFSET 0.430392 -48.264973 -6.423500
				CHANNELS 3 Xrotation Yrotation Zrotation
				JOINT RightToeBase
				{
					OFFSET -4.230900 -16.068199 23.438400
					CHANNELS 3 Xrotation Yrotation Zrotation
					JOINT RightToe_End
					{
						OFFSET -4.510700 0.695400 19.974600
						CHANNELS 3 Xrotation Yrotation Zrotation
						End Site
						{
							OFFSET 0.000000 0.000000 0.000000
						}
					}
				}
			}
		}
	}
}
MOTION
Frames: 5
Frame Time: 0.016667
-0.016507 80.141731 1.256635 7.480785 2.239130 -1.884762 1.502547 -1.963398 0.337265 4.463941 -2.897045 3.069452 0.000000 0.000000 0.000000 4.470553 -2.960905 2.997962 -6.646404 2.329848 -0.789045 -22.799694 6.183981 9.466395 -0.000001 -0.000000 0.000001 -0.863853 7.389832 -0.025978 0.000000 0.000000 0.000000 -11.563464 10.383921 -66.345534 0.000035 -115.180089 0.000032 -72.996206 -11.310934 -18.454647 2.694201 20.233100 14.029389 2.246582 5.062588 -0.344651 -7.335884 -0.421727 13.147333 -0.000001 -0.000000 -0.000000 5.768255 6.881129 -88.058753 5.425113 5.835603 -85.818103 -0.000003 -0.000003 0.000000 -0.017677 7.177001 -79.088304 3.595310 5.400163 -67.288196 0.000001 -0.000001 -0.000001 0.351625 7.858095 -86.242401 3.058251 5.143551 -61.447858 0.000001 0.000001 0.000002 -3.192663 8.750423 -83.420918 6.384920 5.826749 -95.244106 -0.000002 0.000002 -0.000003 0.518560 -7.917611 14.973083 0.000000 0.000000 0.000000 -19.108969 0.823921 54.260020 -0.000028 114.793897 0.000040 -65.260928 9.926070 32.064729 2.274825 -18.433738 -12.204893 2.753432 -6.766194 -0.612024 -5.504811 -5.510957 -14.718491 0.000001 0.000001 0.000001 5.674714 -1.758878 87.252750 4.318611 -4.644874 85.826661 0.000002 0.000000 0.000000 2.028895 -6.487548 78.554743 2.866362 -4.299797 67.363232 0.000003 -0.000001 0.000000 -1.327486 -6.487817 85.540196 2.437357 -4.095144 61.507165 -0.000001 -0.000000 -0.000001 -13.485159 -6.858197 82.489595 5.081634 -4.637843 95.235056 0.000001 -0.000002 -0.000001 21.799995 17.789815 4.721744 23.075082 -5.292962 7.701481 -46.233841 -1.515451 -1.535086 -14.032940 -0.000002 0.000005 -0.000000 0.000000 0.000001 -71.830231 -1.513408 -1.772086 74.747159 -1.869563 -0.065597 -10.390733 2.678239 -3.519402 1.392934 -0.020129 1.750630 0.000000 -0.000000 0.000000 
0.063464 82.398956 1.740402 7.397792 4.067363 -1.038320 1.638907 -2.147911 0.286834 3.785093 -3.090958 2.685692 0.000000 0.000000 0.000000 3.791151 -3.134330 2.617750 -6.142034 2.189227 -1.060332 -20.578868 4.977733 9.024683 0.000001 0.000000 -0.000001 -0.699215 6.301895 -0.123047 0.000000 0.000000 0.000000 -14.747403 8.597207 -65.355082 0.000034 -113.772339 0.000024 -71.122821 -11.217029 -18.021014 2.956442 20.391917 13.868034 2.256793 5.074897 -0.335816 -7.322871 -0.404657 13.162748 -0.000002 0.000000 0.000000 5.832240 6.953390 -87.643676 5.383899 5.832444 -85.412663 -0.000002 0.000001 -0.000000 0.075927 7.167605 -78.770550 3.574147 5.391291 -67.063039 -0.000002 0.000001 0.000001 0.430394 7.837972 -85.961735 3.052585 5.140473 -61.384686 -0.000001 -0.000000 -0.000000 -3.123918 8.721489 -83.173488 6.386828 5.826570 -95.262950 -0.000000 0.000001 -0.000001 0.413487 -7.788721 13.845019 0.000000 0.000000 0.000000 -20.755799 2.647590 54.652483 0.000107 114.710295 -0.000110 -65.124925 9.634436 30.561664 2.414902 -18.861651 -12.282921 2.756547 -6.763791 -0.616798 -5.465470 -5.594279 -14.760051 0.000001 0.000001 -0.000000 5.724096 -2.009591 86.044688 4.254343 -4.639746 85.032652 0.000002 0.000003 -0.000003 2.223351 -6.492719 77.328219 2.805701 -4.274060 66.551854 -0.000001 0.000000 0.000001 -1.004125 -6.353180 83.832724 2.365601 -4.055463 60.497397 -0.000002 -0.000001 -0.000001 -13.015748 -6.850539 80.337696 4.970070 -4.646669 93.856628 -0.000002 -0.000000 -0.000003 19.473470 15.896258 3.965179 25.154782 -3.822500 9.151550 -41.254404 -1.146379 -1.884703 -21.776836 -0.000001 -0.000001 -0.000001 0.000001 0.000001 -68.038185 -1.129481 -3.116311 71.131885 -2.619508 -0.250330 -10.477732 2.666710 -3.696520 1.402819 -0.020487 1.765832 0.000000 0.000000 -0.000000 
0.222589 84.980225 2.016871 7.048117 5.890765 -0.369748 2.267682 -2.204573 0.704649 3.099217 -3.162404 2.168580 0.000000 0.000000 0.000000 3.091625 -3.180354 2.120445 -5.647361 2.000596 -1.393999 -18.366983 3.484119 8.410585 -0.000000 0.000000 -0.000000 -0.472600 4.837149 -0.286772 0.000000 0.000000 0.000000 -18.246984 6.118551 -64.201114 -0.000003 -111.959279 -0.000021 -70.528315 -11.069067 -17.672980 3.052309 20.083155 13.631509 2.282469 5.105834 -0.313562 -7.290187 -0.361693 13.201574 0.000002 -0.000000 -0.000000 5.739242 6.804747 -86.402392 5.292542 5.824434 -84.512977 -0.000001 0.000002 -0.000002 0.063385 7.084370 -77.817814 3.517058 5.366880 -66.453772 0.000000 -0.000000 -0.000002 0.429287 7.766182 -85.148540 3.012636 5.118581 -60.938019 -0.000000 -0.000000 -0.000000 -3.111973 8.578956 -82.473448 6.327453 5.831715 -94.678204 -0.000002 0.000001 -0.000001 0.323429 -7.582998 12.788914 0.000000 0.000000 0.000000 -22.735697 4.589342 55.000515 0.000038 114.546828 -0.000032 -66.009236 9.599534 29.265892 2.396694 -19.071085 -12.360060 2.764296 -6.757702 -0.628888 -5.366924 -5.803882 -14.864102 0.000004 0.000001 0.000001 5.394699 -1.676048 84.200229 4.152332 -4.629785 83.770180 -0.000001 0.000000 0.000002 2.177235 -6.430866 75.372592 2.732558 -4.241668 65.566510 0.000001 0.000000 -0.000003 -0.872487 -6.186916 81.800183 2.288838 -4.011172 59.406185 -0.000000 0.000000 0.000001 -12.578779 -6.518135 78.150382 4.833910 -4.653812 92.177426 0.000004 0.000001 -0.000002 14.775729 13.835124 3.411167 30.258407 -0.461918 11.132096 -34.525015 -0.118088 -3.670753 -32.297314 0.000004 -0.000003 -0.000000 -0.000000 0.000001 -63.468201 -1.039355 -4.301838 66.470786 -3.409858 -0.451785 -10.030575 2.630799 -3.943703 1.368241 -0.019604 1.727022 0.000000 -0.000000 -0.000001 
0.422412 87.739281 2.091678 6.506744 7.617357 0.179629 3.163944 -2.128557 1.251290 2.446619 -3.124232 1.713961 0.000000 0.000000 0.000000 2.423727 -3.115747 1.695901 -5.047371 1.811919 -1.815771 -16.188803 1.802792 7.789924 -0.000000 -0.000000 0.000000 -0.203420 3.122968 -0.566955 0.000000 0.000000 0.000000 -21.904186 3.029747 -63.035044 0.000061 -109.690331 0.000065 -71.153441 -10.857867 -17.502974 3.052081 19.424566 13.311497 2.318668 5.149497 -0.282197 -7.244056 -0.301046 13.256378 0.000003 -0.000001 0.000000 5.508319 6.540115 -84.405005 5.160483 5.810310 -83.210023 0.000001 -0.000001 0.000001 -0.028280 6.934527 -76.285795 3.430235 5.328365 -65.522298 -0.000002 -0.000000 0.000002 0.374637 7.647749 -83.847047 2.941958 5.078799 -60.142561 -0.000003 -0.000001 0.000000 -3.122371 8.407761 -81.338906 6.209382 5.840107 -93.517099 -0.000001 0.000000 0.000001 0.250417 -6.988277 11.672797 0.000000 0.000000 0.000000 -25.083291 6.274635 55.058790 0.000033 114.221950 -0.000037 -67.297068 9.612999 28.187388 2.225122 -18.937405 -12.390625 2.775300 -6.749210 -0.645842 -5.228486 -6.100013 -15.010334 -0.000001 -0.000001 -0.000000 4.860541 -0.985230 81.914807 4.024125 -4.614045 82.179129 -0.000001 0.000003 -0.000002 1.826105 -6.267492 72.978713 2.650908 -4.203726 64.457772 0.000000 -0.000004 0.000000 -0.841715 -5.998532 79.557347 2.208674 -3.962775 58.253099 -0.000002 -0.000002 0.000002 -12.144807 -6.101590 75.947906 4.684023 -4.657085 90.330611 0.000000 -0.000002 0.000002 7.128963 11.581988 3.004253 38.316719 5.024699 13.521167 -23.818097 1.448537 -7.974580 -46.013424 0.000002 0.000004 0.000000 0.000001 0.000001 -58.471385 -1.189570 -5.126790 61.034830 -4.344576 -0.759820 -9.055709 2.636767 -4.474856 0.999885 -0.010654 1.273277 -0.000000 0.000000 0.000001 
0.648352 90.326431 1.830643 5.837805 9.289207 0.438851 4.111890 -1.971485 1.942790 2.040744 -3.016032 1.391134 0.000000 0.000000 0.000000 2.006031 -2.989534 1.398627 -4.440901 1.612600 -2.281643 -14.196188 -0.020068 7.284554 0.000000 0.000000 0.000000 0.068468 1.355723 -0.866199 0.000000 0.000000 0.000000 -25.917124 -0.435044 -62.080669 0.000056 -107.086008 0.000052 -72.402642 -10.640366 -17.497874 3.071189 18.479446 12.895423 2.366968 5.207690 -0.240455 -7.182588 -0.220188 13.329260 0.000001 0.000000 0.000000 5.169007 6.188254 -81.718405 4.995695 5.788430 -81.579342 0.000000 -0.000001 0.000000 -0.168180 6.724018 -74.222764 3.322719 5.278318 -64.359315 0.000001 -0.000000 0.000000 0.307888 7.489325 -82.096838 2.850453 5.025364 -59.103553 -0.000004 -0.000002 0.000001 -3.100676 8.254699 -79.791014 6.047058 5.847789 -91.923035 -0.000003 0.000002 -0.000002 0.210354 -5.995285 10.576174 0.000000 0.000000 0.000000 -27.995668 7.628511 54.628748 0.000052 113.730866 -0.000080 -65.770986 9.893084 26.847066 1.970481 -18.336328 -12.343930 2.789959 -6.737852 -0.668512 -5.044753 -6.495222 -15.204151 0.000003 0.000001 0.000001 4.170563 0.034846 79.101937 3.864698 -4.589398 80.192049 0.000002 0.000002 -0.000002 1.168786 -5.962053 70.336906 2.558043 -4.158204 63.184147 0.000001 -0.000000 0.000001 -0.848116 -5.786544 77.045627 2.122585 -3.908341 56.998980 -0.000001 0.000001 0.000000 -11.663328 -5.790650 73.668931 4.519015 -4.655142 88.298261 0.000003 -0.000001 -0.000001 -1.507298 9.030175 3.987423 46.158374 10.772461 13.931794 -9.604918 1.209674 -12.048834 -46.572888 0.000003 -0.000001 0.000000 -0.000000 -0.000002 -53.657570 -1.570763 -5.394431 55.413270 -5.844017 -1.279319 -7.603053 2.822326 -5.252510 -0.143018 -0.000000 -0.000002 -0.000000 0.000000 -0.000000 
